<?xml version="1.0" encoding="UTF-8"?>
<svg xmlns="http://www.w3.org/2000/svg" xmlns:xlink="http://www.w3.org/1999/xlink" width="13pt" height="13pt" viewBox="0 0 13 13" version="1.1">
<g id="surface1">
<path style=" stroke:none;fill-rule:nonzero;fill:#526278;fill-opacity:1;" d="M 7.59375 2.550781 C 7.429688 2.394531 7.171875 2.402344 7.019531 2.5625 C 6.863281 2.726562 6.871094 2.984375 7.03125 3.136719 L 10.148438 6.09375 L 2.03125 6.09375 C 1.808594 6.09375 1.625 6.277344 1.625 6.5 C 1.625 6.722656 1.808594 6.90625 2.03125 6.90625 L 10.136719 6.90625 L 7.03125 9.863281 C 6.871094 10.015625 6.863281 10.273438 7.019531 10.4375 C 7.097656 10.519531 7.207031 10.5625 7.3125 10.5625 C 7.414062 10.5625 7.515625 10.523438 7.59375 10.449219 L 11.136719 7.074219 C 11.289062 6.921875 11.375 6.71875 11.375 6.5 C 11.375 6.28125 11.289062 6.078125 11.128906 5.917969 Z M 7.59375 2.550781 "/>
</g>
</svg>
